<svg xmlns="http://www.w3.org/2000/svg" width="87.384" height="88.178" viewBox="0 0 87.384 88.178">
  <g id="icon" transform="translate(4.798 4.859)">
    <path id="Shape" d="M3.249,83.741H83.835V2.423L3.249,83.741ZM69.627,69.533H43.536L69.627,43.127V69.533Z" transform="translate(-3.249 -2.423)" fill="none" stroke="#8a0bdb" stroke-width="4" fill-rule="evenodd"/>
    <path id="Shape-2" data-name="Shape" d="M26.241,71.152,33.6,78.515" transform="translate(-5.824 -10.121)" fill="none" stroke="#8a0bdb" stroke-width="4" fill-rule="evenodd"/>
    <path id="Shape-3" data-name="Shape" d="M33.744,63.65l3.938,3.94" transform="translate(-6.665 -9.281)" fill="none" stroke="#8a0bdb" stroke-width="4" fill-rule="evenodd"/>
    <path id="Shape-4" data-name="Shape" d="M41.245,56.148l7.365,7.363" transform="translate(-7.505 -8.441)" fill="none" stroke="#8a0bdb" stroke-width="4" fill-rule="evenodd"/>
    <path id="Shape-5" data-name="Shape" d="M48.748,48.646l3.938,3.939" transform="translate(-8.345 -7.6)" fill="none" stroke="#8a0bdb" stroke-width="4" fill-rule="evenodd"/>
    <path id="Shape-6" data-name="Shape" d="M56.25,41.143l7.364,7.364" transform="translate(-9.186 -6.76)" fill="none" stroke="#8a0bdb" stroke-width="4" fill-rule="evenodd"/>
    <path id="Shape-7" data-name="Shape" d="M63.752,33.641l3.938,3.941" transform="translate(-10.026 -5.92)" fill="none" stroke="#8a0bdb" stroke-width="4" fill-rule="evenodd"/>
    <path id="Shape-8" data-name="Shape" d="M71.254,26.14,78.618,33.5" transform="translate(-10.866 -5.079)" fill="none" stroke="#8a0bdb" stroke-width="4" fill-rule="evenodd"/>
  </g>
</svg>
