<svg xmlns="http://www.w3.org/2000/svg" width="83.063" height="87.32" viewBox="0 0 83.063 87.32">
  <g id="icon" transform="translate(2.036 2)">
    <path id="Shape" d="M56.683,93.082H28.653L30.985,84.7H54.351Z" transform="translate(-3.172 -9.762)" fill="none" stroke="#8a0bdb" stroke-width="4" fill-rule="evenodd"/>
    <path id="Shape-2" data-name="Shape" d="M16.7,43.559c-6.371,1.7-13.31-3.584-15.494-11.792S2.42,15.533,8.791,13.837a9.728,9.728,0,0,1,5.227.085" transform="translate(-0.547 -3.112)" fill="none" stroke="#8a0bdb" stroke-width="4" fill-rule="evenodd"/>
    <path id="Shape-3" data-name="Shape" d="M69.858,43.559c6.371,1.7,13.309-3.584,15.494-11.792s-1.211-16.234-7.581-17.93a9.74,9.74,0,0,0-5.291.1" transform="translate(-7.022 -3.112)" fill="none" stroke="#8a0bdb" stroke-width="4" fill-rule="evenodd"/>
    <path id="Shape-4" data-name="Shape" d="M64.65,2.04H18.23A2.732,2.732,0,0,0,15.5,4.772V30.108c0,15.477,11.637,28.068,25.941,28.068S67.381,45.585,67.381,30.108V4.771A2.731,2.731,0,0,0,64.65,2.04Z" transform="translate(-1.944 -2.04)" fill="none" stroke="#8a0bdb" stroke-width="4" fill-rule="evenodd"/>
    <path id="Shape-5" data-name="Shape" d="M46.4,24.008c-4.22-12.017-3.21-11.73-7.332,0-12.891.258-12.246-.567-2.271,6.918-3.727,12.188-4.355,11.354,5.937,4.268C53.3,42.468,52.3,42.8,48.666,30.926c10.272-7.706,10.245-6.667-2.27-6.918Z" transform="translate(-3.237 -3.26)" fill="none" stroke="#8a0bdb" stroke-width="4" fill-rule="evenodd"/>
    <path id="Shape-6" data-name="Shape" d="M40.222,83.5V70.984" transform="translate(-4.253 -8.481)" fill="none" stroke="#8a0bdb" stroke-width="4" fill-rule="evenodd"/>
    <path id="Shape-7" data-name="Shape" d="M48,83.5V70.984" transform="translate(-4.98 -8.481)" fill="none" stroke="#8a0bdb" stroke-width="4" fill-rule="evenodd"/>
  </g>
</svg>
